<svg width="0" height="0" class="hidden">
  <symbol viewBox="0 0 180 180" fill="none" xmlns="http://www.w3.org/2000/svg" id="buy">
    <g clip-path="url(#clip0)">
      <g clip-path="url(#clip1)">
        <path d="M142.158 3.18v78.883" stroke="#ECF6FF" stroke-width="3.047"></path>
        <path d="M143.328.352v81.965" stroke="#DCEEFF" stroke-width="2.355"></path>
        <path d="M116.723 0v82.517" stroke="#B6D4FF" stroke-width="2.77"></path>
        <path d="M166.803.674v81.107" stroke="#ECF6FF" stroke-width="3.047"></path>
        <path fill-rule="evenodd" clip-rule="evenodd" d="M169.858 82.517H117.62V0h52.238v82.517zm-3.189-3.192h-45.86V3.192h45.86v76.133z" fill="#DCEEFF"></path>
        <path fill-rule="evenodd" clip-rule="evenodd" d="M180 86.584h-64.704v-4.067H180v4.067z" fill="#CCE3FF"></path>
        <path fill-rule="evenodd" clip-rule="evenodd" d="M130.342 86.584h-16.028v-4.067h16.028v4.067z" fill="#B6D4FF"></path>
        <path d="M165.892 28.846h-48.273m48.273 25.631h-48.273" stroke="#DCEEFF" stroke-width="2.355"></path>
        <path fill-rule="evenodd" clip-rule="evenodd" d="M132.946 77.78a7.238 7.238 0 0 0 2.595 4.737h9.195a7.247 7.247 0 0 0 2.596-4.736h-14.386z" fill="#B6D4FF"></path>
        <path fill-rule="evenodd" clip-rule="evenodd" d="M132.947 73.827c.428 3.595 3.485 6.384 7.192 6.384a7.248 7.248 0 0 0 7.193-6.384h-14.385z" fill="#B6D4FF"></path>
        <path fill-rule="evenodd" clip-rule="evenodd" d="M159.937 79.534l-1.561-15.227h-4.882l-1.561 15.227a2.706 2.706 0 0 0 2.69 2.983h2.624a2.706 2.706 0 0 0 2.69-2.983z" fill="#CCE3FF"></path>
      </g>
      <g fill-rule="evenodd" clip-rule="evenodd">
        <path d="M42.224 36.366H28.237l-1.89-18.928h13.988l1.889 18.928z" fill="#DCEEFF"></path>
        <path d="M42.224 36.366H28.237l-1.89-18.928h13.988l1.889 18.928z" stroke="#DCEEFF" stroke-width=".623"></path>
        <path d="M42.977 36.366H28.73l-1.889-18.928H41.09l1.889 18.928z" fill="#fff"></path>
        <path d="M42.977 36.366H28.73l-1.889-18.928H41.09l1.889 18.928z" stroke="#DCEEFF" stroke-width=".623"></path>
        <path d="M40.249 33.867H30.96l-1.39-13.93h9.289l1.39 13.93zm-34.966-10.8l1.309 13.114h17.187L22.47 23.067H5.283z" fill="#DCEEFF"></path>
        <path d="M5.283 23.067l1.309 13.114h17.187L22.47 23.067H5.283z" stroke="#DCEEFF" stroke-width=".623"></path>
        <path d="M5.667 23.067l1.31 13.114h17.506l-1.309-13.114H5.667z" fill="#fff"></path>
        <path d="M5.667 23.067l1.31 13.114h17.506l-1.309-13.114H5.667z" stroke="#DCEEFF" stroke-width=".623"></path>
        <path d="M9.358 25.64l.796 7.969h10.638l-.795-7.969H9.358zm54.026 5.64a1.815 1.815 0 0 1-1.812 1.817H45.268v-3.635h16.304c1 0 1.812.814 1.812 1.817z" fill="#CCE3FF"></path>
        <path d="M52.419 31.28a1.05 1.05 0 0 1-1.049 1.052h-6.057a.044.044 0 0 1-.044-.044v-2.017c0-.024.02-.044.044-.044h6.057c.58 0 1.049.471 1.049 1.053z" fill="#DCEEFF"></path>
        <path d="M65.66 33.098v3.635H47.863a1.816 1.816 0 0 1-1.813-1.817c0-1.004.812-1.818 1.813-1.818h17.795z" fill="#CCE3FF"></path>
        <path d="M65.66 33.873v2.085h-7.318a1.04 1.04 0 0 1-1.039-1.043 1.04 1.04 0 0 1 1.04-1.042h7.316zm5.778 5.275H10.092v-2.585h61.346v2.585z" fill="#DCEEFF"></path>
        <path d="M10.093 39.148H0v-2.585h10.092v2.585z" fill="#CCE3FF"></path>
        <path d="M56.486 39.148l-4.79 7.54v-7.54h4.79z" fill="#B6D4FF"></path>
        <path d="M59.138 39.148l-4.79 7.54h-2.652l4.79-7.54h2.652z" fill="#CCE3FF"></path>
        <path d="M21.35 39.148l-4.791 7.54v-7.54h4.79z" fill="#B6D4FF"></path>
        <path d="M24.001 39.148l-4.79 7.54h-2.652l4.79-7.54h2.652z" fill="#CCE3FF"></path>
      </g>
      <path fill-rule="evenodd" clip-rule="evenodd" d="M139.089 122.374c0 4.522-2.749 8.187-6.141 8.187-3.393 0-6.142-3.665-6.142-8.187 0-4.522 2.749-8.187 6.142-8.187 3.392 0 6.141 3.665 6.141 8.187z" fill="#CCE3FF"></path>
      <path d="M132.994 165.375V122.79" stroke="#DCEEFF" stroke-width="1.213"></path>
      <path fill-rule="evenodd" clip-rule="evenodd" d="M126.38 134.401c2.9 2.9 3.488 7.013 1.312 9.188-2.175 2.174-6.289 1.587-9.19-1.313-2.9-2.899-3.488-7.013-1.313-9.187 2.176-2.175 6.29-1.587 9.191 1.312zm20.71 5.956c2.338 2.338 1.706 6.761-1.412 9.878-3.118 3.118-7.542 3.75-9.881 1.412"
        fill="#CCE3FF"></path>
      <path d="M143.938 144.477l-10.762 10.79m7.652-21.109l-7.865 7.77m-8.166 9.287l8.216 8.306m-11.049-21.602l10.983 11.111" stroke="#DCEEFF" stroke-width="1.213"></path>
      <path fill-rule="evenodd" clip-rule="evenodd" d="M136.289 180h-6.587c-5.06 0-9.199-4.139-9.199-9.197v-8.653h24.984v8.653c0 5.058-4.139 9.197-9.198 9.197z" fill="#ECF6FF"></path>
      <path d="M145.487 166.961h-24.984m24.984 4.822h-24.984" stroke="#DCEEFF" stroke-width="1.213"></path>
      <path fill-rule="evenodd" clip-rule="evenodd" d="M94.453 45.263c0 2.396-1.54 4.338-3.44 4.338-1.901 0-3.442-1.942-3.442-4.338s1.54-4.338 3.441-4.338c1.9 0 3.441 1.942 3.441 4.338" fill="#19141E"></path>
      <path d="M86.31 62.448l-.144-4.983s6.042.482 7.334-.19c0 0 1.58-8.157-.304-12.673l-.038-.176-12.75-1.495-.714 7.332c-.43-1.27-3.974-2.709-4.9-.89-2.008 3.938 5.17 6.59 5.17 6.59l-.728 6.545" fill="#F6B852"></path>
      <path opacity=".399" fill-rule="evenodd" clip-rule="evenodd" d="M86.167 57.465l-4.074-.875 4.054 2.745.02-1.87z" fill="#000"></path>
      <path fill-rule="evenodd" clip-rule="evenodd" d="M89.423 50.17l1.408 3.45-1.687.022.279-3.471zm-1.502.133a.853.853 0 1 1-1.678.304.853.853 0 0 1 1.678-.304m4.731 0a.853.853 0 0 1-1.678.304.853.853 0 0 1 1.678-.304" fill="#0D0B6D"></path>
      <path d="M80.64 51.515c-1.209-2.074-2.957-2.706-3.743-2.891-.313-.907-.551-1.96-.719-3.078-.45-2.994 1.722-5.725 3.477-6.51 1.776-.794 4.838-1.894 9.32-.4 3.013 1.004 4.94-1.401 6.713-.374 3.03 1.756.211 9.443-7.472 7.49-5.496-1.397-5.637-1.047-5.684-.031-.152 3.282-.663 5.213-1.892 5.794z"
        fill="#2F2F3D"></path>
      <path fill-rule="evenodd" clip-rule="evenodd" d="M89.013 50.345c0 1.08-.873 1.955-1.95 1.955a1.953 1.953 0 0 1-1.952-1.955c0-1.08.874-1.955 1.951-1.955 1.078 0 1.951.875 1.951 1.955zm4.914 0c0 1.08-.874 1.955-1.952 1.955a1.953 1.953 0 0 1-1.95-1.955c0-1.08.873-1.955 1.95-1.955 1.078 0 1.952.875 1.952 1.955z"
        stroke="#252535" stroke-width=".669"></path>
      <path d="M89.866 50.435h-.844m-3.91-.09h-4.819" stroke="#252535" stroke-width=".669"></path>
      <path fill-rule="evenodd" clip-rule="evenodd" d="M91.329 174.435l.047-4.086-5.265-2.654-.764 11.682h18.241c-3.104-3.499-12.26-4.942-12.26-4.942zm-23.367.159l.048-4.59-3.433 2.797-2.762 1.539-.912 5.037h12.485c-1.57-4.279-5.426-4.783-5.426-4.783z"
        fill="#3375BB"></path>
      <path fill-rule="evenodd" clip-rule="evenodd" d="M68.01 170.005l-5.266-1.584-.93 5.92 6.148.253.047-4.589zm23.366.343l-5.265-1.583-.425 5.416 5.643.253.047-4.086z" fill="#F6B852"></path>
      <path d="M92.13 169.008l-.12 3.793h-6.946l.122-3.804a2.154 2.154 0 0 1-1.353-1.951l-1.118-56.806-12.079 57.35a2.218 2.218 0 0 1-1.527 1.664l-.455 3.547h-7.281l.626-3.916a2.207 2.207 0 0 1-.837-2.07l11.121-76.01h10.05v-.03h12.171l-.73 76.165a2.154 2.154 0 0 1-1.643 2.068z"
        fill="#2F2F3D"></path>
      <path opacity=".198" fill-rule="evenodd" clip-rule="evenodd" d="M82.654 111.141l2.132-9.454-1.604 28.663-.528-19.209z" fill="#000"></path>
      <g clip-path="url(#clip2)">
        <mask id="a" maskUnits="userSpaceOnUse" x="13" y="80" width="106" height="80">
          <path d="M113.469 101.422L33.072 80.575a6.274 6.274 0 0 0-7.648 4.498l-11.848 45.694a6.273 6.273 0 0 0 4.498 7.647l80.397 20.847a6.273 6.273 0 0 0 7.648-4.498l11.849-45.693a6.274 6.274 0 0 0-4.499-7.648z" fill="#fff"></path>
        </mask>
        <g mask="url(#a)">
          <path d="M113.469 101.422L33.072 80.575a6.274 6.274 0 0 0-7.648 4.498l-11.848 45.694a6.273 6.273 0 0 0 4.498 7.647l80.397 20.847a6.273 6.273 0 0 0 7.648-4.498l11.849-45.693a6.274 6.274 0 0 0-4.499-7.648z" fill="#1B323C"></path>
          <g opacity=".198">
            <path opacity=".198" d="M109.737 188.417c10.382 2.692 20.98-3.541 23.672-13.923s-3.542-20.98-13.924-23.672c-10.381-2.692-20.98 3.541-23.672 13.923s3.542 20.98 13.924 23.672z" fill="url(#paint0_linear)"></path>
            <path opacity=".198" d="M107.263 197.961c15.652 4.059 31.631-5.34 35.69-20.992 4.059-15.653-5.34-31.632-20.992-35.691-15.653-4.059-31.632 5.34-35.69 20.993-4.06 15.652 5.34 31.631 20.992 35.69z" fill="url(#paint1_linear)"></path>
            <path opacity=".198" d="M104.858 207.831c21.003 5.446 42.445-7.165 47.891-28.168 5.446-21.003-7.165-42.445-28.169-47.891-21.003-5.446-42.444 7.165-47.89 28.168-5.446 21.004 7.165 42.445 28.168 47.891z" fill="url(#paint2_linear)"></path>
            <path opacity=".198" d="M101.864 218.783c27.152 7.041 54.871-9.263 61.912-36.415 7.04-27.153-9.264-54.871-36.416-61.912-27.152-7.041-54.871 9.263-61.912 36.416-7.04 27.152 9.263 54.871 36.416 61.911z" fill="url(#paint3_linear)"></path>
            <path opacity=".198" d="M98.864 230.351c33.541 8.698 67.782-11.442 76.48-44.983 8.697-33.542-11.443-67.783-44.984-76.48-33.542-8.697-67.783 11.443-76.48 44.984-8.697 33.541 11.443 67.782 44.984 76.479z" fill="url(#paint4_linear)"></path>
            <path opacity=".198" d="M95.865 241.919c39.93 10.354 80.693-13.622 91.047-53.552 10.353-39.93-13.623-80.693-53.553-91.047s-80.693 13.622-91.047 53.552 13.623 80.693 53.553 91.047z" fill="url(#paint5_linear)"></path>
          </g>
          <g opacity=".198">
            <path opacity=".198" d="M4.554 201.267c10.382 2.692 20.98-3.542 23.672-13.924s-3.541-20.98-13.923-23.672-20.98 3.542-23.672 13.924c-2.692 10.381 3.541 20.98 13.923 23.672z" fill="url(#paint6_linear)"></path>
            <path opacity=".198" d="M2.08 210.81c15.652 4.059 31.63-5.34 35.69-20.992 4.058-15.653-5.34-31.632-20.993-35.691-15.653-4.058-31.632 5.34-35.69 20.993-4.06 15.652 5.34 31.632 20.992 35.69z" fill="url(#paint7_linear)"></path>
            <path opacity=".198" d="M-.325 220.681c21.003 5.446 42.444-7.166 47.89-28.169 5.446-21.003-7.165-42.445-28.168-47.891-21.003-5.446-42.445 7.166-47.89 28.169-5.447 21.003 7.164 42.444 28.168 47.891z" fill="url(#paint8_linear)"></path>
            <path opacity=".198" d="M-3.32 231.633c27.152 7.04 54.871-9.263 61.912-36.416 7.04-27.152-9.263-54.871-36.416-61.912-27.152-7.04-54.87 9.263-61.912 36.416-7.04 27.152 9.264 54.871 36.416 61.912z" fill="url(#paint9_linear)"></path>
            <path opacity=".198" d="M-6.318 243.201c33.54 8.697 67.782-11.443 76.479-44.984 8.697-33.542-11.443-67.783-44.984-76.48-33.541-8.697-67.782 11.443-76.48 44.984-8.697 33.541 11.443 67.782 44.985 76.48z" fill="url(#paint10_linear)"></path>
            <path opacity=".198" d="M-9.318 254.769c39.93 10.354 80.693-13.623 91.047-53.553s-13.622-80.693-53.552-91.047c-39.93-10.353-80.694 13.623-91.047 53.553-10.354 39.93 13.622 80.693 53.552 91.047z" fill="url(#paint11_linear)"></path>
          </g>
        </g>
        <path d="M22.213 127.781a.215.215 0 0 1-.136-.103.221.221 0 0 1-.023-.175.208.208 0 0 1 .104-.137.212.212 0 0 1 .17-.024c.06.015.105.05.136.103a.21.21 0 0 1 .024.17.231.231 0 0 1-.105.143.215.215 0 0 1-.17.023zm1.61.418a.216.216 0 0 1-.137-.104.221.221 0 0 1-.022-.175.21.21 0 0 1 .103-.137.22.22 0 0 1 .17-.024c.06.016.105.05.137.104.032.051.04.108.024.169a.229.229 0 0 1-.105.143.22.22 0 0 1-.17.024zm1.61.417a.224.224 0 0 1-.16-.279.209.209 0 0 1 .104-.136.212.212 0 0 1 .17-.024c.06.015.105.05.136.103a.21.21 0 0 1 .024.17.23.23 0 0 1-.105.142.212.212 0 0 1-.17.024zm1.61.418a.216.216 0 0 1-.137-.104.222.222 0 0 1-.023-.175.208.208 0 0 1 .104-.137.22.22 0 0 1 .17-.024c.059.016.105.05.136.103a.21.21 0 0 1 .024.17.231.231 0 0 1-.105.143.22.22 0 0 1-.17.024zm10.147.772c.261.068.422.225.483.471.047.19.033.43-.042.72-.071.275-.171.491-.3.65-.185.227-.413.306-.682.236a.601.601 0 0 1-.46-.457c-.053-.202-.041-.451.036-.747.06-.23.14-.419.242-.569.19-.278.431-.379.722-.304zm-.482 1.845a.375.375 0 0 0 .36-.093c.109-.097.204-.304.287-.622.06-.23.08-.426.062-.589-.018-.163-.109-.266-.272-.308-.15-.039-.277.003-.383.127-.105.122-.194.32-.265.594a1.579 1.579 0 0 0-.062.514c.018.209.11.335.273.377zm1.295.003c-.029.142 0 .253.087.333a.407.407 0 0 0 .514.017c.112-.079.226-.269.342-.57a.49.49 0 0 1-.26.135.695.695 0 0 1-.282-.016.626.626 0 0 1-.415-.302.684.684 0 0 1-.048-.513.777.777 0 0 1 .293-.441c.148-.11.332-.137.55-.08.295.076.464.262.507.556a1.45 1.45 0 0 1-.049.572 1.863 1.863 0 0 1-.282.629c-.206.286-.456.391-.75.315-.199-.051-.335-.142-.411-.272a.55.55 0 0 1-.053-.43l.257.067zm.493-.315a.444.444 0 0 0 .301-.028c.101-.045.173-.15.216-.316.039-.149.03-.269-.027-.361a.4.4 0 0 0-.256-.184.387.387 0 0 0-.33.049.502.502 0 0 0-.194.305.495.495 0 0 0 .014.339c.044.094.136.159.276.196zm1.913-.698c.261.068.422.225.483.471.047.19.033.43-.042.72-.071.274-.17.491-.3.65-.185.227-.412.306-.681.236a.603.603 0 0 1-.46-.457c-.054-.202-.042-.451.035-.747.06-.23.14-.42.242-.569.19-.278.432-.379.723-.304zm-.482 1.845a.373.373 0 0 0 .36-.094c.109-.096.204-.303.287-.622.06-.229.08-.425.062-.588-.018-.163-.108-.266-.271-.308a.356.356 0 0 0-.384.126c-.105.123-.193.321-.264.595a1.576 1.576 0 0 0-.063.514c.018.209.11.334.273.377zm1.295.003c-.028.142 0 .253.087.333a.407.407 0 0 0 .514.017c.112-.08.226-.27.342-.57a.49.49 0 0 1-.259.135.695.695 0 0 1-.282-.016.627.627 0 0 1-.416-.303.68.68 0 0 1-.048-.512.774.774 0 0 1 .294-.441c.148-.11.331-.137.55-.08.294.076.463.261.506.556a1.45 1.45 0 0 1-.049.572 1.872 1.872 0 0 1-.282.629c-.206.286-.456.391-.75.315-.198-.052-.335-.142-.41-.272a.55.55 0 0 1-.053-.43l.256.067zm.493-.316a.443.443 0 0 0 .301-.027c.102-.045.174-.151.217-.316.038-.149.03-.269-.027-.361a.4.4 0 0 0-.257-.184.386.386 0 0 0-.33.048.505.505 0 0 0-.194.305.498.498 0 0 0 .014.34c.044.094.136.159.276.195zm-9.697-33.957l-.525 2.024-.205-.053.42-1.62-1.148 1.157-.102-.027-.444-1.56-.418 1.612-.205-.054.525-2.024.176.046.49 1.728 1.26-1.275.176.046zm1.021.79c.199.051.338.14.418.268.08.126.096.286.045.481l-.244.943-.197-.051.061-.237a.486.486 0 0 1-.253.132.732.732 0 0 1-.335-.016.647.647 0 0 1-.374-.227.405.405 0 0 1-.067-.36.403.403 0 0 1 .22-.276c.115-.055.275-.055.479-.002l.483.125.024-.093c.034-.13.023-.24-.033-.326-.055-.089-.153-.151-.294-.188a.82.82 0 0 0-.552.049l-.053-.178a.827.827 0 0 1 .317-.078c.117-.009.236.003.355.034zm-.431 1.366c.115.03.221.03.318-.001a.5.5 0 0 0 .245-.183l.064-.249-.477-.124c-.26-.067-.414-.01-.46.17a.26.26 0 0 0 .046.238.484.484 0 0 0 .264.149zm1.611.591a1.23 1.23 0 0 1-.342-.145.789.789 0 0 1-.228-.204l.135-.138c.05.067.12.129.207.187.089.056.185.097.29.124.138.036.246.041.322.016a.217.217 0 0 0 .15-.159.165.165 0 0 0-.022-.144.347.347 0 0 0-.12-.109 1.899 1.899 0 0 0-.21-.106 3.017 3.017 0 0 1-.28-.147.48.48 0 0 1-.161-.175.357.357 0 0 1-.016-.26.389.389 0 0 1 .24-.271c.127-.053.285-.056.474-.007.098.026.193.065.284.117.092.05.164.105.217.164l-.132.142a.793.793 0 0 0-.415-.246.545.545 0 0 0-.316-.008.22.22 0 0 0-.145.157.188.188 0 0 0 .019.153.38.38 0 0 0 .121.114c.052.03.125.067.219.11.115.054.207.103.274.145.067.042.12.098.157.167a.338.338 0 0 1 .018.252.382.382 0 0 1-.25.274c-.13.049-.293.048-.49-.003zm1.836.361a.407.407 0 0 1-.166.044.607.607 0 0 1-.183-.02.466.466 0 0 1-.3-.201.46.46 0 0 1-.03-.357l.238-.92-.272-.07.045-.173.272.07.086-.332.206.053-.087.332.463.12-.045.174-.463-.12-.235.908c-.024.091-.02.166.012.225.035.059.094.099.18.121a.364.364 0 0 0 .245-.02l.034.166zm1.801-.177l-1.272-.33a.564.564 0 0 0 .082.431.63.63 0 0 0 .38.253.69.69 0 0 0 .272.018.595.595 0 0 0 .245-.097l.08.163a.665.665 0 0 1-.302.119.871.871 0 0 1-.349-.022.899.899 0 0 1-.39-.207.754.754 0 0 1-.21-.35.812.812 0 0 1 .003-.425.857.857 0 0 1 .199-.375.737.737 0 0 1 .744-.205.76.76 0 0 1 .354.197.715.715 0 0 1 .192.343.843.843 0 0 1-.008.424l-.02.063zm-.563-.85a.539.539 0 0 0-.407.045.566.566 0 0 0-.262.321l1.078.28a.561.561 0 0 0-.076-.409.527.527 0 0 0-.333-.237zm1.317.483a.523.523 0 0 1 .274-.176.76.76 0 0 1 .376.015l-.052.199-.048-.016a.507.507 0 0 0-.414.05c-.116.075-.197.201-.243.379l-.201.775-.206-.053.395-1.522.196.051-.077.298zm1.237 1.642a.86.86 0 0 1-.38-.203.742.742 0 0 1-.206-.347.829.829 0 0 1 .003-.428.81.81 0 0 1 .205-.373.741.741 0 0 1 .349-.203.862.862 0 0 1 .43.007.78.78 0 0 1 .33.169.589.589 0 0 1 .188.286l-.18.064a.486.486 0 0 0-.148-.217.621.621 0 0 0-.554-.125.537.537 0 0 0-.26.155.669.669 0 0 0-.152.291.676.676 0 0 0-.008.331.563.563 0 0 0 .43.411.6.6 0 0 0 .266.01.488.488 0 0 0 .234-.118l.127.144a.616.616 0 0 1-.305.161.817.817 0 0 1-.37-.015zm1.932-1.15c.199.051.338.141.418.269.08.125.096.286.045.48l-.244.943-.197-.051.061-.237a.486.486 0 0 1-.253.132.732.732 0 0 1-.335-.016.647.647 0 0 1-.373-.227.404.404 0 0 1-.068-.36.403.403 0 0 1 .22-.276c.115-.054.275-.055.48-.002l.482.125.024-.092c.034-.132.023-.24-.033-.327-.055-.088-.153-.151-.294-.187a.815.815 0 0 0-.552.048l-.053-.177a.826.826 0 0 1 .317-.079c.117-.008.236.003.355.034zm-.431 1.366c.115.03.221.03.318-.001a.493.493 0 0 0 .245-.183l.064-.249-.477-.123c-.26-.068-.414-.011-.46.17a.262.262 0 0 0 .046.238.483.483 0 0 0 .264.148zm1.721-.701a.511.511 0 0 1 .274-.176.76.76 0 0 1 .376.014l-.052.199-.048-.015a.5.5 0 0 0-.414.05c-.116.075-.197.201-.243.378l-.201.775-.206-.053.395-1.521.196.051-.077.298zm2.555-.323l-.557 2.146-.196-.051.078-.301a.642.642 0 0 1-.307.171.732.732 0 0 1-.362-.008.801.801 0 0 1-.362-.198.729.729 0 0 1-.2-.346.837.837 0 0 1 .005-.427.844.844 0 0 1 .203-.377c.096-.1.21-.167.342-.201a.803.803 0 0 1 .725.167.63.63 0 0 1 .188.286l.237-.914.206.053zm-1.28 1.78a.543.543 0 0 0 .562-.157.65.65 0 0 0 .156-.29.649.649 0 0 0 .005-.329.522.522 0 0 0-.148-.261.575.575 0 0 0-.267-.149.588.588 0 0 0-.312 0 .546.546 0 0 0-.256.155.669.669 0 0 0-.153.291.67.67 0 0 0-.008.328.563.563 0 0 0 .148.264.62.62 0 0 0 .273.148z"
          fill="#fff"></path>
        <g clip-path="url(#clip3)">
          <path d="M36.456 88.445l3.125.81-1.465 5.65-3.125-.81 1.465-5.65z" fill="#FF5F00"></path>
          <path d="M35.923 91.322a3.73 3.73 0 0 1 2.091-2.473 3.652 3.652 0 0 0-2.003-1.34c-1.974-.511-3.987.682-4.502 2.668-.515 1.987.665 4.008 2.639 4.52a3.652 3.652 0 0 0 2.401-.198 3.715 3.715 0 0 1-.626-3.177z" fill="#EB001B"></path>
          <path d="M43.064 93.174c-.515 1.986-2.529 3.18-4.503 2.667a3.653 3.653 0 0 1-2.003-1.34 3.7 3.7 0 0 0 2.092-2.472 3.73 3.73 0 0 0-.627-3.177 3.651 3.651 0 0 1 2.402-.198c1.974.512 3.152 2.543 2.64 4.52z" fill="#F79E1B"></path>
        </g>
      </g>
      <g clip-path="url(#clip4)">
        <mask id="b" maskUnits="userSpaceOnUse" x="16" y="89" width="103" height="75">
          <path d="M102.813 89.151l-81.645 15.242a6.274 6.274 0 0 0-5.017 7.319l8.663 46.403a6.274 6.274 0 0 0 7.319 5.016l81.645-15.242a6.273 6.273 0 0 0 5.016-7.318l-8.662-46.403a6.274 6.274 0 0 0-7.319-5.017z" fill="#fff"></path>
        </mask>
        <g mask="url(#b)">
          <path d="M102.813 89.151l-81.645 15.242a6.274 6.274 0 0 0-5.017 7.319l8.663 46.403a6.274 6.274 0 0 0 7.319 5.016l81.645-15.242a6.273 6.273 0 0 0 5.016-7.318l-8.662-46.403a6.274 6.274 0 0 0-7.319-5.017z" fill="#3EA4DD"></path>
        </g>
        <g clip-path="url(#clip5)">
          <path d="M32.398 117.491l-1.427.266-.16-5.797 1.428-.266.16 5.797zm-3.678-5.14l1.536-.287-1.22 6.055-1.486.277-2.153-4.66c-.897-.347-1.612-.365-1.612-.365l.008-.101 2.249-.419c.619-.116.771.38.771.38l.953 2.443.317.803.637-4.126zm12.273 3.535l-.323-.805-1.814.339-.141.892-1.487.277 1.155-5.608s.05-.444.58-.543l1.147-.214 2.194 5.418-1.31.244zm-1.941-1.698l1.171-.219-.815-2.028-.356 2.247zm-2.511-1.896c-.675-.232-2.08-.054-1.961.582.119.637 2.135.401 2.409 1.865.263 1.41-1.11 2.202-2.083 2.384-.974.182-1.67-.017-1.67-.017l-.024-1.304c.674.373 2.47.179 2.327-.585-.142-.764-2.12-.413-2.39-1.868-.29-1.546 1.333-2.178 2.04-2.31a4.073 4.073 0 0 1 1.33.006l.022 1.247z"
            fill="#fff"></path>
        </g>
        <path opacity=".198" d="M136.352 169.508c10.543-1.968 17.494-12.11 15.526-22.653s-12.11-17.494-22.653-15.526-17.495 12.11-15.527 22.653c1.969 10.543 12.111 17.495 22.654 15.526z" fill="url(#paint12_linear)"></path>
        <g opacity=".198">
          <path opacity=".198" d="M50.383 245.43c21.33-3.982 35.392-24.5 31.41-45.83-3.981-21.329-24.5-35.392-45.83-31.41-21.328 3.982-35.391 24.5-31.41 45.83 3.982 21.329 24.5 35.392 45.83 31.41z" fill="url(#paint13_linear)"></path>
          <path opacity=".198" d="M52.32 256.617c27.574-5.147 45.754-31.673 40.607-59.247-5.148-27.574-31.674-45.755-59.248-40.607-27.574 5.147-45.754 31.673-40.607 59.247 5.148 27.574 31.674 45.755 59.248 40.607z" fill="url(#paint14_linear)"></path>
          <path opacity=".198" d="M54.513 268.365c34.062-6.359 56.52-39.126 50.161-73.188-6.358-34.062-39.126-56.52-73.188-50.161-34.062 6.358-56.52 39.126-50.161 73.188 6.359 34.062 39.126 56.52 73.188 50.161z" fill="url(#paint15_linear)"></path>
          <path opacity=".198" d="M56.706 280.113c40.55-7.57 67.286-46.579 59.716-87.129-7.57-40.55-46.579-67.286-87.129-59.716-40.55 7.57-67.285 46.579-59.715 87.129 7.57 40.55 46.578 67.286 87.128 59.716z" fill="url(#paint16_linear)"></path>
        </g>
        <path d="M31.37 151.746a.218.218 0 0 1-.168-.036.223.223 0 0 1-.095-.149.21.21 0 0 1 .035-.168.22.22 0 0 1 .144-.094.218.218 0 0 1 .168.036.21.21 0 0 1 .093.143.23.23 0 0 1-.034.174.219.219 0 0 1-.144.094zm1.634-.305a.218.218 0 0 1-.168-.036.224.224 0 0 1-.094-.149.21.21 0 0 1 .035-.168.219.219 0 0 1 .144-.094.218.218 0 0 1 .167.036.21.21 0 0 1 .094.143.23.23 0 0 1-.034.174.22.22 0 0 1-.144.094zm1.635-.306a.223.223 0 0 1-.262-.185.208.208 0 0 1 .035-.167.215.215 0 0 1 .143-.094.218.218 0 0 1 .168.036.21.21 0 0 1 .094.143.23.23 0 0 1-.035.174.214.214 0 0 1-.143.093zm1.634-.305a.223.223 0 0 1-.262-.185.208.208 0 0 1 .035-.167.212.212 0 0 1 .144-.094c.06-.011.117 0 .168.035a.21.21 0 0 1 .093.144.23.23 0 0 1-.034.174.214.214 0 0 1-.144.093zm9.517-3.606c.266-.05.478.024.637.221.124.152.213.375.268.669.052.28.053.518.005.716-.072.285-.245.452-.518.504a.601.601 0 0 1-.61-.219c-.134-.16-.23-.39-.286-.692a1.806 1.806 0 0 1-.021-.617c.054-.333.23-.527.525-.582zm.347 1.875a.375.375 0 0 0 .286-.238c.057-.133.056-.361-.004-.685a1.65 1.65 0 0 0-.194-.558c-.085-.141-.21-.196-.376-.165a.358.358 0 0 0-.294.278c-.043.155-.039.372.013.65.04.21.093.374.162.492.105.182.24.257.407.226zm1.174-.547c.034.141.107.229.22.264a.408.408 0 0 0 .473-.202c.067-.12.09-.34.067-.662a.495.495 0 0 1-.177.233.688.688 0 0 1-.263.105.627.627 0 0 1-.505-.097.683.683 0 0 1-.26-.444.776.776 0 0 1 .078-.524c.088-.163.242-.265.464-.306.3-.056.53.04.695.289.09.136.157.316.198.538.047.252.051.481.012.69-.065.346-.247.547-.546.603-.201.038-.363.014-.487-.072a.55.55 0 0 1-.23-.367l.26-.048zm.313-.495a.444.444 0 0 0 .26-.153c.073-.083.093-.209.062-.378-.028-.151-.088-.256-.178-.315a.4.4 0 0 0-.31-.058.388.388 0 0 0-.278.184.503.503 0 0 0-.047.359.494.494 0 0 0 .157.301c.08.067.191.086.334.06zm1.435-1.443c.266-.05.478.024.638.22.123.152.212.376.267.67.052.279.054.518.005.716-.072.284-.244.452-.518.503a.603.603 0 0 1-.61-.218c-.134-.16-.229-.391-.285-.692a1.812 1.812 0 0 1-.022-.618c.055-.332.23-.526.525-.581zm.347 1.874a.374.374 0 0 0 .287-.237c.057-.134.055-.362-.005-.685a1.665 1.665 0 0 0-.194-.559c-.085-.14-.21-.195-.376-.164-.152.028-.25.121-.294.277-.043.156-.039.373.013.651.04.209.093.373.162.492.105.181.24.256.407.225zm1.174-.547c.034.141.108.229.22.265a.407.407 0 0 0 .473-.203c.067-.119.09-.34.068-.661a.487.487 0 0 1-.178.232.706.706 0 0 1-.262.106.627.627 0 0 1-.505-.098.683.683 0 0 1-.261-.444.773.773 0 0 1 .079-.523c.087-.163.242-.265.463-.306.3-.056.531.04.695.288.091.137.157.316.199.539.047.251.05.481.011.689-.065.347-.247.548-.546.604-.2.037-.363.013-.487-.072a.55.55 0 0 1-.23-.367l.261-.049zm.313-.494a.45.45 0 0 0 .26-.153c.073-.084.093-.21.062-.378-.028-.151-.087-.256-.178-.316a.403.403 0 0 0-.31-.057.385.385 0 0 0-.277.184.503.503 0 0 0-.048.359.498.498 0 0 0 .158.301c.08.066.19.086.333.06zm-24.047-24.328a1.154 1.154 0 0 1-.578-.032 1.019 1.019 0 0 1-.692-.813 1.061 1.061 0 0 1 .038-.56c.064-.178.17-.328.317-.449.148-.12.324-.2.527-.238.153-.028.299-.029.438-.002.138.026.262.08.37.161l-.112.164a.834.834 0 0 0-.654-.13.908.908 0 0 0-.422.194.848.848 0 0 0-.257.364.872.872 0 0 0-.03.456.83.83 0 0 0 .563.66c.147.05.302.059.464.029a.821.821 0 0 0 .562-.36l.164.112a.91.91 0 0 1-.29.288c-.12.075-.256.127-.408.156zm1.138-1.517a.515.515 0 0 1 .174-.275.77.77 0 0 1 .346-.147l.038.203-.05.006a.504.504 0 0 0-.354.221c-.074.117-.094.266-.06.446l.147.787-.209.039-.288-1.545.2-.037.056.302zm2.387.108l-1.293.241a.565.565 0 0 0 .258.356c.13.077.28.1.45.068a.597.597 0 0 0 .435-.291l.143.113a.678.678 0 0 1-.223.237.873.873 0 0 1-.326.127.881.881 0 0 1-.441-.021.761.761 0 0 1-.338-.228.818.818 0 0 1-.178-.386.855.855 0 0 1 .021-.424.738.738 0 0 1 .587-.501.75.75 0 0 1 .404.028.71.71 0 0 1 .319.229.838.838 0 0 1 .172.387l.01.065zm-.871-.53a.533.533 0 0 0-.35.214.565.565 0 0 0-.1.402l1.095-.205a.562.562 0 0 0-.242-.338.532.532 0 0 0-.403-.073zm2.433-1.284l.407 2.179-.2.037-.057-.305a.645.645 0 0 1-.205.284.729.729 0 0 1-.331.147.805.805 0 0 1-.413-.026.73.73 0 0 1-.328-.228.84.84 0 0 1-.176-.389.839.839 0 0 1 .024-.427.709.709 0 0 1 .224-.328.802.802 0 0 1 .375-.173.73.73 0 0 1 .353.016.64.64 0 0 1 .292.18l-.174-.928.209-.039zm-.403 2.154a.59.59 0 0 0 .277-.128.537.537 0 0 0 .165-.253.646.646 0 0 0 .018-.328.644.644 0 0 0-.135-.3.57.57 0 0 0-.55-.195.59.59 0 0 0-.282.131.547.547 0 0 0-.166.25.67.67 0 0 0-.015.328.67.67 0 0 0 .132.301.57.57 0 0 0 .245.176.621.621 0 0 0 .31.018zm1.102-1.628l.209-.039.288 1.544-.209.039-.288-1.544zm.043-.358a.154.154 0 0 1-.117-.023.148.148 0 0 1-.04-.209.149.149 0 0 1 .101-.064.154.154 0 0 1 .117.023.136.136 0 0 1 .063.092.15.15 0 0 1-.024.117.15.15 0 0 1-.1.064zm1.83 1.509a.418.418 0 0 1-.132.11.628.628 0 0 1-.174.06c-.145.027-.264.009-.356-.055a.457.457 0 0 1-.18-.31l-.174-.934-.276.052-.033-.177.276-.051-.063-.338.208-.039.063.338.47-.088.033.176-.47.088.172.922c.018.092.053.159.107.199a.277.277 0 0 0 .213.033.376.376 0 0 0 .12-.043.323.323 0 0 0 .095-.079l.1.136zm2.106-.277a1.154 1.154 0 0 1-.578-.032c-.179-.06-.33-.16-.454-.301a1.082 1.082 0 0 1-.238-.512 1.061 1.061 0 0 1 .038-.56c.064-.178.17-.328.317-.449.148-.12.324-.2.527-.238a1.17 1.17 0 0 1 .437-.002c.14.026.263.08.37.161l-.111.164a.834.834 0 0 0-.654-.13.907.907 0 0 0-.422.194.847.847 0 0 0-.258.364.873.873 0 0 0-.03.456.834.834 0 0 0 .564.66c.147.05.302.06.464.029a.822.822 0 0 0 .562-.36l.164.112a.91.91 0 0 1-.29.288c-.12.075-.256.127-.408.156zm1.397-1.89c.202-.038.366-.016.493.066.126.08.208.219.244.416l.18.958-.2.037-.046-.241a.484.484 0 0 1-.173.227.733.733 0 0 1-.31.128.649.649 0 0 1-.434-.047.404.404 0 0 1-.214-.297.405.405 0 0 1 .082-.344c.08-.098.225-.166.432-.205l.49-.092-.017-.094c-.025-.133-.08-.227-.168-.281-.087-.057-.203-.072-.345-.045a.816.816 0 0 0-.48.278l-.123-.138a.837.837 0 0 1 .253-.206c.103-.057.215-.097.336-.12zm.19 1.42a.571.571 0 0 0 .287-.135.502.502 0 0 0 .144-.27l-.047-.253-.485.09c-.264.05-.379.166-.345.35a.26.26 0 0 0 .143.196.484.484 0 0 0 .302.022zm1.26-1.366a.518.518 0 0 1 .174-.275.77.77 0 0 1 .346-.147l.038.203-.05.006a.504.504 0 0 0-.354.221c-.074.117-.094.266-.06.446l.147.787-.209.039-.288-1.545.2-.037.056.302zm2.177-1.375l.406 2.179-.2.037-.056-.305a.645.645 0 0 1-.205.284.728.728 0 0 1-.332.147.805.805 0 0 1-.412-.026.73.73 0 0 1-.328-.228.84.84 0 0 1-.176-.389.839.839 0 0 1 .024-.427.708.708 0 0 1 .224-.328.801.801 0 0 1 .375-.173.719.719 0 0 1 .353.016.64.64 0 0 1 .291.18l-.173-.928.209-.039zm-.404 2.154c.108-.02.2-.063.277-.128a.538.538 0 0 0 .166-.253.648.648 0 0 0 .018-.328.645.645 0 0 0-.135-.3.57.57 0 0 0-.55-.195.59.59 0 0 0-.283.131.547.547 0 0 0-.166.25.67.67 0 0 0-.014.328.67.67 0 0 0 .132.301c.068.082.15.141.245.176a.62.62 0 0 0 .31.018z"
          fill="#fff"></path>
      </g>
      <path fill-rule="evenodd" clip-rule="evenodd" d="M111.14 63.309l.083 1.442 3.828 2.348.191-.1c.454-.234.931-.48 1.458-.904.883-.707 1.411-1.346 1.928-1.97.316-.384.628-.761 1.015-1.147.703-.7 1.508-1.328 2.188-1.859.59-.46 1.085-.847 1.335-1.142a.442.442 0 0 0-.043-.617l-.102-.092a.45.45 0 0 0-.593.002l-3.676 2.567-.122-.191 4.234-3.958a.44.44 0 0 0-.064-.625l-.219-.178a.449.449 0 0 0-.613.049l-4.482 3.936-.144-.138c-.032-.018.724-.867 1.64-1.895 1.058-1.189 2.329-2.617 2.842-3.276a.438.438 0 0 0-.098-.633l-.29-.2a.448.448 0 0 0-.588.07l-4.815 5.048-.108-.131c-.044-.023.972-1.455 1.914-2.782.519-.732 1.015-1.432 1.299-1.847a.44.44 0 0 0-.157-.638l-.22-.12a.45.45 0 0 0-.572.127l-4.099 5.287s-.243.257-.607.455c-.231-.313-.285-.916-.34-1.526-.047-.526-.094-1.057-.257-1.408-.421-.91-2.323-2.228-1.527-.318.596 1.433.323 2.511.094 3.417a6.856 6.856 0 0 0-.181.86c-.131 1.083-.132 2.087-.132 2.087zm-28.083-1.88c-2.044.008-4.876.013-4.876.013s1.536 3.3 6.182 3.571c4.646.272 3.309-2.73 3.309-2.73s-2.57-.86-4.615-.853z"
        fill="#F6B852"></path>
      <path d="M78.234 93.648l1.922 1.62s-.635 4.935 1.57 4.91c0 0-.079.782.356.905.435.124 1.84-1.589 1.84-1.589s1.725-.441 2.226-2.005c.5-1.563.977-5.329.496-5.669-.48-.34-5.502-1.018-5.502-1.018s-2.118.024-2.908 2.846z" fill="#F6B852"></path>
      <rect x="113.393" y="51.019" width="5.412" height="12.992" rx=".962" transform="rotate(-8.88 113.393 51.019)" fill="#000"></rect>
      <rect x="111.89" y="51.261" width="6.255" height="12.992" rx=".962" transform="rotate(-8.88 111.89 51.261)" fill="#3375BB"></rect>
      <mask id="c" maskUnits="userSpaceOnUse" x="57" y="61" width="61" height="35">
        <path d="M80.759 90.954l1.416-3.059-3.44 7.428s-3.844-2.225-8.7-2.63c-9.341 0-12.784-3.334-13.01-7.535-.24-4.465 3.669-10.838 3.669-10.838s6.12-9.05 11.79-11.694c1.163-.543 3.985-.996 5.695-1.183.525-.057.211.147.391.493.188.36.76.896 1.156 1.295.825.833 2.449 1.463 3.321 1.592.665.098 1.95.25 2.568.168.618-.083 1.29-.362 1.47-.528.18-.166.447-.373.585-.692.139-.32.132-.228.132-.523 0-.294-.016-.25-.044-.39-.03-.141-.03-.225-.046-.298-.075-.32-.042-.277-.042-.277 3.348 1.01 5.043 1.385 6.263 2.855l9.32 6.536 6.376-8.316 8.228 5.521s-7.285 13.565-12.565 15.065c-4.253 1.208-8.56-2.55-10.076-4.056l1.8 9.131c.288 1.577-1.093 2.174-2.324 2.118l-13.933-.183z"
          fill="#3375BB"></path>
      </mask>
      <g mask="url(#c)">
        <path d="M80.759 90.954l1.416-3.059-3.44 7.428s-3.844-2.225-8.7-2.63c-9.341 0-12.784-3.334-13.01-7.535-.24-4.465 3.669-10.838 3.669-10.838s6.12-9.05 11.79-11.694c1.163-.543 3.985-.996 5.695-1.183.525-.057.211.147.391.493.188.36.76.896 1.156 1.295.825.833 2.449 1.463 3.321 1.592.665.098 1.95.25 2.568.168.618-.083 1.29-.362 1.47-.528.18-.166.447-.373.585-.692.139-.32.132-.228.132-.523 0-.294-.016-.25-.044-.39-.03-.141-.03-.225-.046-.298-.075-.32-.042-.277-.042-.277 3.348 1.01 5.043 1.385 6.263 2.855l9.32 6.536 6.376-8.316 8.228 5.521s-7.285 13.565-12.565 15.065c-4.253 1.208-8.56-2.55-10.076-4.056l1.8 9.131c.288 1.577-1.093 2.174-2.324 2.118l-13.933-.183z"
          fill="#3375BB"></path>
      </g>
      <path opacity=".201" fill-rule="evenodd" clip-rule="evenodd" d="M95.188 79.892l-1.114-4.4 3.008 6.013-1.894-1.613z" fill="#000"></path>
      <path opacity=".201" d="M81.568 88.646L68.82 81.969l6.697-8.762" stroke="#000" stroke-width=".836"></path>
      <path d="M87.52 54.433c-.108.287-.111.61-.01.9.101.289.299.52.55.643a.91.91 0 0 0 .786.01 1.1 1.1 0 0 0 .562-.628c.224-.596-.32-.8-.842-1.056s-.823-.465-1.047.131z" fill="#0D0B6D"></path>
    </g>
    <defs>
      <linearGradient id="paint0_linear" x1="99.007" y1="146.377" x2="120.064" y2="178.961" gradientUnits="userSpaceOnUse">
        <stop stop-color="#fff"></stop>
        <stop offset="1" stop-color="#fff" stop-opacity="0"></stop>
      </linearGradient>
      <linearGradient id="paint1_linear" x1="91.085" y1="134.578" x2="122.834" y2="183.704" gradientUnits="userSpaceOnUse">
        <stop stop-color="#fff"></stop>
        <stop offset="1" stop-color="#fff" stop-opacity="0"></stop>
      </linearGradient>
      <linearGradient id="paint2_linear" x1="83.151" y1="122.781" x2="125.752" y2="188.7" gradientUnits="userSpaceOnUse">
        <stop stop-color="#fff"></stop>
        <stop offset="1" stop-color="#fff" stop-opacity="0"></stop>
      </linearGradient>
      <linearGradient id="paint3_linear" x1="73.801" y1="108.833" x2="128.875" y2="194.051" gradientUnits="userSpaceOnUse">
        <stop stop-color="#fff"></stop>
        <stop offset="1" stop-color="#fff" stop-opacity="0"></stop>
      </linearGradient>
      <linearGradient id="paint4_linear" x1="64.198" y1="94.53" x2="132.23" y2="199.8" gradientUnits="userSpaceOnUse">
        <stop stop-color="#fff"></stop>
        <stop offset="1" stop-color="#fff" stop-opacity="0"></stop>
      </linearGradient>
      <linearGradient id="paint5_linear" x1="54.596" y1="80.227" x2="135.586" y2="205.548" gradientUnits="userSpaceOnUse">
        <stop stop-color="#fff"></stop>
        <stop offset="1" stop-color="#fff" stop-opacity="0"></stop>
      </linearGradient>
      <linearGradient id="paint6_linear" x1="-6.176" y1="159.227" x2="14.882" y2="191.81" gradientUnits="userSpaceOnUse">
        <stop stop-color="#fff"></stop>
        <stop offset="1" stop-color="#fff" stop-opacity="0"></stop>
      </linearGradient>
      <linearGradient id="paint7_linear" x1="-14.098" y1="147.427" x2="17.65" y2="196.553" gradientUnits="userSpaceOnUse">
        <stop stop-color="#fff"></stop>
        <stop offset="1" stop-color="#fff" stop-opacity="0"></stop>
      </linearGradient>
      <linearGradient id="paint8_linear" x1="-22.033" y1="135.63" x2="20.568" y2="201.549" gradientUnits="userSpaceOnUse">
        <stop stop-color="#fff"></stop>
        <stop offset="1" stop-color="#fff" stop-opacity="0"></stop>
      </linearGradient>
      <linearGradient id="paint9_linear" x1="-31.383" y1="121.682" x2="23.691" y2="206.9" gradientUnits="userSpaceOnUse">
        <stop stop-color="#fff"></stop>
        <stop offset="1" stop-color="#fff" stop-opacity="0"></stop>
      </linearGradient>
      <linearGradient id="paint10_linear" x1="-40.984" y1="107.379" x2="27.048" y2="212.649" gradientUnits="userSpaceOnUse">
        <stop stop-color="#fff"></stop>
        <stop offset="1" stop-color="#fff" stop-opacity="0"></stop>
      </linearGradient>
      <linearGradient id="paint11_linear" x1="-50.587" y1="93.077" x2="30.404" y2="218.397" gradientUnits="userSpaceOnUse">
        <stop stop-color="#fff"></stop>
        <stop offset="1" stop-color="#fff" stop-opacity="0"></stop>
      </linearGradient>
      <linearGradient id="paint12_linear" x1="108.796" y1="135.995" x2="141.69" y2="156.563" gradientUnits="userSpaceOnUse">
        <stop stop-color="#fff"></stop>
        <stop offset="1" stop-color="#fff" stop-opacity="0"></stop>
      </linearGradient>
      <linearGradient id="paint13_linear" x1="-5.365" y1="177.63" x2="61.183" y2="219.24" gradientUnits="userSpaceOnUse">
        <stop stop-color="#fff"></stop>
        <stop offset="1" stop-color="#fff" stop-opacity="0"></stop>
      </linearGradient>
      <linearGradient id="paint14_linear" x1="-19.75" y1="168.967" x2="66.282" y2="222.76" gradientUnits="userSpaceOnUse">
        <stop stop-color="#fff"></stop>
        <stop offset="1" stop-color="#fff" stop-opacity="0"></stop>
      </linearGradient>
      <linearGradient id="paint15_linear" x1="-34.515" y1="160.092" x2="71.76" y2="226.541" gradientUnits="userSpaceOnUse">
        <stop stop-color="#fff"></stop>
        <stop offset="1" stop-color="#fff" stop-opacity="0"></stop>
      </linearGradient>
      <linearGradient id="paint16_linear" x1="-49.279" y1="151.216" x2="77.239" y2="230.322" gradientUnits="userSpaceOnUse">
        <stop stop-color="#fff"></stop>
        <stop offset="1" stop-color="#fff" stop-opacity="0"></stop>
      </linearGradient>
      <clipPath id="clip0">
        <path fill="#fff" d="M.001 0h180v180h-180z"></path>
      </clipPath>
      <clipPath id="clip1">
        <path fill="#fff" d="M114.188 0H180v86.625h-65.812z"></path>
      </clipPath>
      <clipPath id="clip2">
        <path transform="rotate(14.537 26.999 79)" fill="#fff" d="M26.999 79h95.604v59.752H26.999z"></path>
      </clipPath>
      <clipPath id="clip3">
        <path transform="rotate(14.537 32.44 86.584)" fill="#fff" d="M32.44 86.584h11.95v7.469H32.44z"></path>
      </clipPath>
      <clipPath id="clip4">
        <path transform="rotate(-10.574 15.001 105.544)" fill="#fff" d="M15.001 105.544h95.604v59.752H15.001z"></path>
      </clipPath>
      <clipPath id="clip5">
        <path transform="rotate(-10.574 23.748 113.174)" fill="#fff" d="M23.748 113.174h17.788v5.929H23.748z"></path>
      </clipPath>
    </defs>
  </symbol>
  <symbol viewBox="0 0 180 180" fill="none" xmlns="http://www.w3.org/2000/svg" id="download">
    <path fill-rule="evenodd" clip-rule="evenodd" d="M69.427 45.877c0 19.154-15.542 34.681-34.714 34.681C15.542 80.558 0 65.031 0 45.878c0-19.154 15.542-34.681 34.713-34.681 19.172 0 34.714 15.527 34.714 34.68z" fill="#ECF6FF"></path>
    <path d="M34.714 35.855v70.935m0-38.045l7.727-7.72m-7.435-15.454l3.979-3.975m-4.271 15.631l-7.406-7.4" stroke="#B6D4FF" stroke-width="1.043"></path>
    <path fill-rule="evenodd" clip-rule="evenodd" d="M180 75.811c0 16.726-10.904 26.056-25.106 26.056-14.203 0-25.107-9.33-25.107-26.056C129.787 40.597 145.812 0 154.894 0S180 40.597 180 75.811z" fill="#CCE3FF"></path>
    <path d="M154.894 50.934v77.197m.299-36.302l8.886-8.895m-9.929-8.054l-7.271-7.278m8.453-4.123l5.551-5.557" stroke="#ECF6FF" stroke-width="1.043" stroke-linecap="square"></path>
    <g fill-rule="evenodd" clip-rule="evenodd">
      <path d="M35.58 137.998l-7.86 36.701h-5.198l7.859-36.701h5.2z" fill="#CCE3FF"></path>
      <path d="M161.932 137.998H27.357v-5.677h134.575v5.677zm-106.039 20.56H29.655v-5.677h26.238v5.677z" fill="#D7EBFF"></path>
      <path d="M134.126 100.635l5.898 31.686h-7.117l-5.898-31.686h7.117zm-102.583 0l5.897 31.686h-7.117l-5.898-31.686h7.117z" fill="#CCE3FF"></path>
      <path d="M58.915 137.998H27.357v-5.677h31.558v5.677z" fill="#B6D4FF"></path>
      <path d="M17.327 121.29l1.055 5.678h7.119l-1.057-5.678h-7.117z" fill="#CCE3FF"></path>
      <path d="M24.444 121.29l1.057 5.678h119.776l-1.057-5.678H24.444z" fill="#D7EBFF"></path>
      <path d="M15.404 110.962l1.055 5.677h7.12l-1.058-5.677h-7.117z" fill="#CCE3FF"></path>
      <path d="M22.522 110.962l1.057 5.677h119.776l-1.057-5.677H22.522z" fill="#D7EBFF"></path>
      <path d="M20.6 100.635l1.054 5.677h-7.116l-1.055-5.677h7.116z" fill="#CCE3FF"></path>
      <path d="M140.375 100.635l1.058 5.677H21.656l-1.055-5.677h119.774z" fill="#D7EBFF"></path>
      <path d="M55.893 137.998l7.859 36.701h-5.2l-7.859-36.701h5.2zm82.643 0l-7.859 36.701h-5.199l7.859-36.701h5.199z" fill="#CCE3FF"></path>
      <path d="M158.848 158.558H132.61v-5.677h26.238v5.677z" fill="#D7EBFF"></path>
      <path d="M158.848 137.998l7.859 36.701h-5.199l-7.859-36.701h5.199z" fill="#CCE3FF"></path>
    </g>
    <mask id="a" maskUnits="userSpaceOnUse" x="102" y="72" width="60" height="61">
      <rect x="102.179" y="72.84" width="59.633" height="59.89" rx="17.436" fill="#F2F5F7"></rect>
    </mask>
    <g mask="url(#a)">
      <rect x="102.558" y="73.219" width="58.875" height="59.132" rx="17.057" fill="#fff" stroke="#EBF1F8" stroke-width=".758"></rect>
      <path d="M131.733 87.011c5.412 4.52 11.619 4.241 13.392 4.241-.388 25.706-3.343 20.608-13.392 27.816-10.048-7.208-12.985-2.11-13.373-27.816 1.755 0 7.961.279 13.373-4.241z" stroke="#3375BB" stroke-width="4.084" stroke-miterlimit="10" stroke-linecap="round"
        stroke-linejoin="round"></path>
    </g>
    <g clip-path="url(#clip0)">
      <path d="M106.46 169.312l-.052 4.811s10.059 1.699 13.469 5.817H99.836l.839-13.752 5.785 3.124zm-32.091-1.102l-.055 5.723s4.487.628 6.313 5.962H66.1l1.452-6.279.569-5.723 6.247.317z" fill="#3375BB"></path>
      <path d="M100.677 167.448l5.785 1.864-.053 4.81-6.198-.298.466-6.376zm-32.433-1.212l6.126 1.974-.055 5.722-6.76-.316.69-7.38z" fill="#F6B852"></path>
      <path d="M81.12 133.393l-3.918 37.95H66.665l1.783-37.95h-7.472c-5.66 0-10.248-4.55-10.248-10.164v-4.518h51.892c7.326 0 12.996 6.428 12.089 13.706l-5.062 38.926H98.93l.494-37.95H81.12z" fill="#19141E"></path>
      <path opacity=".102" fill-rule="evenodd" clip-rule="evenodd" d="M50.727 118.711h23.004c4.752 0 8.467 4.066 8.001 8.757l-4.53 43.875H66.665l1.783-37.95h-7.472c-5.66 0-10.248-4.55-10.248-10.164v-4.518z" fill="#fff"></path>
      <path d="M90.873 98.232c-2.012 3.967-9.075 16.991-14.11 14.913-3.77-1.555-8.282-14.45-8.282-14.45l7.336-4.385 3.296 8.862 6.73-7.343c-.228-1.456-.411-3.358.044-4.028.776-1.142 4.7-4.658 4.7-4.658l.715 5.958.125-.502c0-.028.007-.059.02-.091l.005-.01.289-1.163c-.121-.06-.171-.148-.119-.27a.994.994 0 0 1 .266-.32l.986-3.969s.324.145.798.361c.764-.158 3.528 1.73 3.57 1.758.563.365-.776 6.4-1.863 7.52-.774.798-3.18 1.486-4.506 1.817zM45.93 125.14l.45.857s.406.7.832 1.921c.426 1.222.249 1.969 1.17 3.888 1.045 2.179-.825 1.28-1.495.33-.523-.743-.464-1.746-1.143-2.195-.227.364-.746.885-1.036 4.028-.052.564.202 2.392.202 2.392.006.548.076 1.69-.545 1.865-.154.043-.355-.128-.355-.128s.06.715-.574.857c-.25.056-.745-1.487-.745-1.487s-.076.784-.55.871c-.134.024-1.716-4.448-1.716-4.448l.096 1.01.21 1.035s-.017.557-.463.655c-.177.039-.516-.89-.834-1.982-.495-1.701-.485-2.978-.34-4.249.177-1.535.098-2.051.779-3.934.081-.225.19-.484.312-.75-.373-3.237-1.425-12.712-1.296-15.62.156-3.529 3.878-11.361 3.878-11.361l7.557 4.243-4.165 7.621-.229 14.581zm18.08-35.097c-4.377-.258-6.224-2.99-6.645-3.729 2.777-.192 3.067-.164 6.767.22 1.5.157 2.552.477 3.571.757.22.752.534 3-3.693 2.752z"
        fill="#F6B852"></path>
      <mask id="b" maskUnits="userSpaceOnUse" x="42" y="86" width="38" height="33">
        <path d="M76.476 94.221l.026-.005 2.982 6.883-4.256 2.491-.888 15.028H50.096l-.406-14.82-7.666-5.757s3.615-7.28 9.8-10.178c2-.937 3.834-1.38 5.54-1.549.14-.014.03-.01.047.056a.73.73 0 0 0 .083.158c.039.063.039.043.231.327.192.285.477.568.906 1.008a6.11 6.11 0 0 0 1.33.993c.55.308 1.089.514 1.435.66.312.132.575.201.83.262.719.171 1.278.225 2.42.284.138.008.94-.052 1.082-.08.2-.04.381-.077.609-.139a2.598 2.598 0 0 0 1.167-.794c.159-.198.31-.85.263-1.33-.046-.479-.255-.48-.064-.427 3.349.915 6.513 2.802 8.363 6.15.15.27.286.529.41.779z"
          fill="#3375BB"></path>
      </mask>
      <g mask="url(#b)">
        <path d="M76.476 94.221l.026-.005 2.982 6.883-4.256 2.491-.888 15.028H50.096l-.406-14.82-7.666-5.757s3.615-7.28 9.8-10.178c2-.937 3.834-1.38 5.54-1.549.14-.014.03-.01.047.056a.73.73 0 0 0 .083.158c.039.063.039.043.231.327.192.285.477.568.906 1.008a6.11 6.11 0 0 0 1.33.993c.55.308 1.089.514 1.435.66.312.132.575.201.83.262.719.171 1.278.225 2.42.284.138.008.94-.052 1.082-.08.2-.04.381-.077.609-.139a2.598 2.598 0 0 0 1.167-.794c.159-.198.31-.85.263-1.33-.046-.479-.255-.48-.064-.427 3.349.915 6.513 2.802 8.363 6.15.15.27.286.529.41.779z"
          fill="#3375BB"></path>
      </g>
      <path opacity=".201" d="M49.69 103.797l1.945 1.321 4.674-5.45" stroke="#000" stroke-width=".834"></path>
      <path d="M94.085 94.162l-.34 1.664h-5.484l2.587-13.248h5.485l-1.004 5.144-1.079-.5-.336-.094-.264.015-.115.078v.322l1.172 1.689-.896.391-1.38.725-.4.277-.154.143-.126.113-.08.098-.049.087-.02.112.02.05.025.039.034.034.453.16 1.032-.283h1.02l-1.362.283-.897.538-.305.288-.172.211v.193l.301.136 1.899-.218-.629.342-.417.259-.381.197-.296.382v.188l.105.11.265.142h1.219l.569-.067z"
        fill="#5E93D1"></path>
      <path fill-rule="evenodd" clip-rule="evenodd" d="M88.26 95.826h-.908l2.587-13.248h.907L88.26 95.826zm3.532-11.71c-.076.387-.301.669-.502.63-.202-.04-.304-.385-.228-.772.076-.388.3-.67.502-.63.202.04.303.385.228.772z" fill="#020101"></path>
      <path fill-rule="evenodd" clip-rule="evenodd" d="M74.468 69.854l-18.81.479-.014-.303-.224-4.631-.17-3.525a1.88 1.88 0 0 1 2.012-1.97l15.125 1.114a1.881 1.881 0 0 1 1.74 1.787l.082 1.664.224 4.663.035.722z" fill="#19141E"></path>
      <path fill-rule="evenodd" clip-rule="evenodd" d="M74.433 69.132c-2.72.366-5.894.654-9.286.819-3.467.169-6.718.187-9.503.08l-.224-4.632c2.76-.378 5.999-.676 9.467-.843 3.393-.165 6.577-.186 9.322-.087l.224 4.663z" fill="#5E93D1"></path>
      <path d="M66.304 87.444l-.154-5.343s6.475.517 7.86-.205c0 0 1.693-8.747-.326-13.59l-.04-.19-13.666-1.276-.914 7.34c-.46-1.362-4.111-2.708-5.104-.759-2.152 4.225 5.543 7.07 5.543 7.07l-.782 7.017" fill="#F6B852"></path>
      <path opacity=".398" fill-rule="evenodd" clip-rule="evenodd" d="M66.15 82.1l-4.366-.938 4.346 2.944.02-2.005z" fill="#000"></path>
      <path fill-rule="evenodd" clip-rule="evenodd" d="M69.752 73.369l1.509 3.699-1.809.023.3-3.722zm-1.72 1.051a.914.914 0 0 1-1.8.326.914.914 0 0 1 1.8-.326zm4.746 0a.914.914 0 0 1-1.8.326.914.914 0 0 1 1.8-.326z" fill="#0D0B6D"></path>
      <path fill-rule="evenodd" clip-rule="evenodd" d="M67.876 78.138s.632 1.028 1.884.94z" fill="#fff"></path>
      <path d="M67.876 78.138s.632 1.028 1.884.94" stroke="#252535" stroke-width=".719"></path>
      <path fill-rule="evenodd" clip-rule="evenodd" d="M74.412 71.026l-.215-1.11c-.371-1.478-11.528-.914-11.528-.914l.152 1.987-.187.95c-9.028.26-16.032-.531-16.098-1.897-.072-1.49 8.144-3.1 18.35-3.596 10.208-.496 18.54.31 18.612 1.8.048.996-3.608 2.045-9.086 2.78z"
        fill="#19141E"></path>
      <path fill-rule="evenodd" clip-rule="evenodd" d="M60.615 76.474a4.969 4.969 0 0 0-.043-.095c-1.425-3.058-3.923-3.693-4.613-3.813-.118-.99-.208-1.78-.208-1.78-.11-1.353 6.918-1.784 6.918-1.784s.686 6.37.253 6.913c-.27.34-1.218.496-2.307.56z"
        fill="#19141E"></path>
    </g>
    <defs>
      <clipPath id="clip0">
        <path fill="#fff" d="M38.879 59.899h81.122V180H38.879z"></path>
      </clipPath>
    </defs>
  </symbol>
  <symbol viewBox="0 0 180 180" fill="none" xmlns="http://www.w3.org/2000/svg" id="wallet">
    <g clip-path="url(#clip0)">
      <path fill-rule="evenodd" clip-rule="evenodd" d="M174.121 121.494h2.433V13.758h-2.433v107.736z" fill="#D7EBFF"></path>
      <path fill-rule="evenodd" clip-rule="evenodd" d="M149.124 16.5l-19.253-6.352a1.537 1.537 0 0 1-.978-1.938l.961-2.884a1.547 1.547 0 0 1 1.947-.973l19.253 6.352a1.536 1.536 0 0 1 .978 1.938l-.961 2.884a1.546 1.546 0 0 1-1.947.973z" fill="#ECF6FF"></path>
      <path fill-rule="evenodd" clip-rule="evenodd" d="M170.676 161.437h9.325v-35.706h-9.325v35.706z" fill="#CCE3FF"></path>
      <path fill-rule="evenodd" clip-rule="evenodd" d="M172.651 132.39h5.373v-12.217h-5.373v12.217zm.452-116.056h4.471v-5.18h-4.471v5.18z" fill="#CCE3FF"></path>
      <path d="M142.598 7.967s32.741 7.205 32.741 24.718" stroke="#DCEEFF" stroke-width="2.223" stroke-linejoin="bevel"></path>
      <path fill-rule="evenodd" clip-rule="evenodd" d="M151.274 14.552l-21.107-6.964c-1.889-.623-2.922-2.671-2.296-4.551l.19-.57c.626-1.88 2.684-2.908 4.573-2.285l21.107 6.964c1.889.623 2.922 2.671 2.296 4.552l-.19.569c-.626 1.88-2.684 2.908-4.573 2.285z"
        fill="#CCE3FF"></path>
      <path fill-rule="evenodd" clip-rule="evenodd" d="M166.744 130.362c0 12.312-8.082 17.837-18.012 17.837-9.929 0-18.011-5.525-18.011-17.837 0-22.935 9.829-44.353 18.011-44.353 8.182 0 18.012 21.418 18.012 44.353z" fill="#ECF6FF"></path>
      <path d="M148.733 110.428v47.991m.329-18.3l6.688-6.654m-6.799-14.753l4.157-4.135m-4.595 15.825l-6.166-6.134" stroke="#CCE3FF" stroke-width=".854" stroke-linecap="square"></path>
      <path fill-rule="evenodd" clip-rule="evenodd" d="M52.313 75.98c0 14.313-11.71 25.917-26.156 25.917C11.711 101.897.001 90.293.001 75.98c0-14.314 11.71-25.918 26.156-25.918 14.446 0 26.156 11.604 26.156 25.918z" fill="#ECF6FF"></path>
      <path d="M26.157 68.49v53.01m0-28.431l5.823-5.77M26.377 75.75l2.998-2.97m-3.218 11.681l-5.58-5.53" stroke="#B6D4FF" stroke-width=".854"></path>
      <path fill-rule="evenodd" clip-rule="evenodd" d="M130.245 82.69c0 12.47-8.165 19.426-18.8 19.426-10.635 0-18.8-6.957-18.8-19.427 0-26.255 12-56.523 18.8-56.523 6.801 0 18.8 30.268 18.8 56.523z" fill="#CCE3FF"></path>
      <path d="M111.445 64.14v57.557m.225-27.066L118.324 88m-7.436-6.005l-5.445-5.427m6.329-3.074l4.157-4.143" stroke="#ECF6FF" stroke-width=".854" stroke-linecap="square"></path>
      <g fill-rule="evenodd" clip-rule="evenodd">
        <path d="M90.076 133.578l5.143 23.913h3.402l-5.143-23.913h-3.402z" fill="#CCE3FF"></path>
        <path d="M7.397 133.578h88.06v-3.699H7.397v3.699zm69.387 13.396h17.169v-3.699H76.784v3.699z" fill="#D7EBFF"></path>
        <path d="M25.592 109.234l-3.86 20.645h4.658l3.86-20.645h-4.658zm67.126 0l-3.86 20.645h4.658l3.859-20.645h-4.657z" fill="#CCE3FF"></path>
        <path d="M74.807 133.578h20.65v-3.699h-20.65v3.699z" fill="#B6D4FF"></path>
        <path d="M102.02 122.692l-.69 3.7h-4.658l.692-3.7h4.656z" fill="#CCE3FF"></path>
        <path d="M97.364 122.692l-.692 3.7H18.295l.692-3.7h78.377z" fill="#D7EBFF"></path>
        <path d="M103.278 115.963l-.69 3.698H97.93l.691-3.698h4.657z" fill="#CCE3FF"></path>
        <path d="M98.621 115.963l-.691 3.698H19.553l.691-3.698h78.377z" fill="#D7EBFF"></path>
        <path d="M99.879 109.234l-.69 3.699h4.656l.691-3.699h-4.657z" fill="#CCE3FF"></path>
        <path d="M21.503 109.234l-.692 3.699H99.19l.69-3.699H21.503z" fill="#D7EBFF"></path>
        <path d="M76.785 133.578l-5.142 23.913h3.402l5.142-23.913h-3.402zm-54.079 0l5.143 23.913h3.402l-5.143-23.913h-3.402z" fill="#CCE3FF"></path>
        <path d="M9.415 146.974h17.169v-3.699H9.415v3.699z" fill="#D7EBFF"></path>
        <path d="M9.415 133.578l-5.143 23.913h3.403l5.142-23.913H9.415z" fill="#CCE3FF"></path>
      </g>
      <g clip-path="url(#clip1)">
        <path fill-rule="evenodd" clip-rule="evenodd" d="M99.804 41.695s4.365 5.69-1.562 7.2l1.562-7.2z" fill="#19141E"></path>
        <path d="M91.67 61.253l-.145-5.017s6.247.486 7.551-.192c0 0 .991-6.096.05-10.418l-5.13-4.633-8.28.61-.94 7.494c-.433-1.278-4.376-2.88-5.323-.013-1.22 3.698 5.815 5.64 5.815 5.64l-.735 6.59" fill="#F6B852"></path>
        <path d="M81.907 41.317L79.88 39.25l1.107-1.08 1.851 1.886.18-.086-.477-2.658 1.525-.273.382 2.13c3.693-2.254 6.61-.497 6.61-.497s1.176-4.937 4.434-4.923c4.641.02 5.358 7.192 5.358 7.192s2.339-3.9 3.669-3.343c1.33.558 1.367 13.513-17.1 7.2 0 0 1.588 3.572-2.643 4.298 0 0-.738-1.525-3.238-1.611 0 0-3.846-1.565.37-6.17z"
          fill="#2F2F3D"></path>
        <path opacity=".4" fill-rule="evenodd" clip-rule="evenodd" d="M91.525 56.237l-4.11-.882 4.09 2.765.02-1.883z" fill="#000"></path>
        <path fill-rule="evenodd" clip-rule="evenodd" d="M94.994 48.688l1.42 3.473-1.702.022.282-3.495zm-1.698.337a.86.86 0 1 1-1.693.307.86.86 0 0 1 1.693-.307zm4.467 0a.86.86 0 1 1-1.693.307.86.86 0 0 1 1.693-.307z" fill="#0D0B6D"></path>
        <path fill-rule="evenodd" clip-rule="evenodd" d="M92.793 52.73s.547.994 1.728.97z" fill="#fff"></path>
        <path d="M92.793 52.73s.547.994 1.728.97" stroke="#0D0B6D" stroke-width=".779"></path>
        <path d="M109.907 169.059l1.199 3.855s9.365-3.833 14.182-2.378l-16.233 9.378-4.226-10.588 5.078-.267zm-48.882-14.797l-5.472 4.553s.628 3.228.814 6.254c.27 4.38-.208 8.3-.208 8.3l-8.346-16.254 11.619-7.79 1.593 4.937z" fill="#3375BB"></path>
        <path d="M104.753 169.305l4.848-1.308 1.505 4.917-4.155 1.728-2.198-5.337zm-45.397-19.988l.289 6.106-4.092 3.392-2.889-4.922 6.692-4.576z" fill="#F6B852"></path>
        <path d="M80.38 109.172c-1.339-4.399-2.284-7.674-2.595-9.105-1.381-6.359-1.378-9.398-1.378-9.63h22.828c-.098 1.702.187 6.213-.456 12.459l14.008 62.317 1.413-.246 1.23 4.844-15.322 3.049-1.866-5.118.915-.159c-2.045-6.139-6.51-19.766-10.844-33.247a77.708 77.708 0 0 1-1.704 2.702c-8.074 12.246-16.133 19.332-20.548 22.66l.652.931-4.429 2.81-9.74-13.82 4.298-3.07.724 1.033c5.242-4.808 15.712-16.114 21.884-34.278.414-1.216.712-2.617.93-4.132z"
          fill="#19141E"></path>
        <path fill-rule="evenodd" clip-rule="evenodd" d="M99.157 167.583c-4.386-13.167-19.91-60.783-21.371-67.516-1.382-6.36-1.379-9.398-1.379-9.63H95.98l16.808 74.776 1.413-.246 1.23 4.844-15.321 3.049-1.867-5.118.915-.159z" fill="#fff" fill-opacity=".1"></path>
        <path d="M114.806 71.408c-1.9 3.72-8.568 15.93-13.322 13.983-3.56-1.459-7.82-13.549-7.82-13.549l6.926-4.11 3.112 8.308 6.355-6.886c-.216-1.364-.389-3.147.042-3.776.732-1.07 4.437-4.367 4.437-4.367l.675 5.586.118-.47a.218.218 0 0 1 .023-.095l.273-1.09c-.114-.058-.161-.14-.112-.254a.929.929 0 0 1 .251-.3l.931-3.721s.306.135.754.339c.72-.149 3.33 1.62 3.37 1.648.532.342-.732 6-1.759 7.051-.73.748-3.003 1.393-4.254 1.703zM72.373 96.637l.425.803s.384.656.786 1.802c.401 1.145.235 1.846 1.104 3.645.987 2.042-.778 1.2-1.411.309-.495-.696-.439-1.637-1.08-2.058-.214.342-.704.83-.978 3.777-.049.528.191 2.243.191 2.243.005.513.072 1.584-.515 1.748-.145.04-.334-.12-.334-.12s.056.671-.543.804c-.235.052-.703-1.395-.703-1.395s-.072.735-.519.817c-.127.023-1.62-4.17-1.62-4.17l.09.947.198.97s-.016.522-.436.614c-.168.037-.488-.834-.788-1.858-.467-1.595-.458-2.793-.32-3.984.165-1.439.092-1.923.734-3.688.077-.212.18-.454.295-.703-.352-3.035-1.346-11.92-1.224-14.646.148-3.308 3.662-10.652 3.662-10.652l7.135 3.978-3.933 7.146-.216 13.67zm17.07-32.907c-4.133-.242-5.876-2.803-6.274-3.496 2.622-.18 2.896-.154 6.389.206 1.416.147 2.41.447 3.372.71.208.705.504 2.812-3.487 2.58z"
          fill="#F6B852"></path>
        <mask id="a" maskUnits="userSpaceOnUse" x="68" y="60" width="37" height="31">
          <path d="M101.214 67.645l.024-.004 2.815 6.453-4.017 2.336-.84 14.09h-22.89l-.383-13.896-7.237-5.397s3.413-6.826 9.253-9.543c1.888-.879 3.62-1.293 5.23-1.452.132-.013.028-.01.044.053.01.035.041.088.078.147.037.06.037.04.219.307.18.267.45.533.855.945.336.342.8.677 1.256.931.519.29 1.028.482 1.354.62.295.123.544.188.784.245.679.16 1.207.21 2.285.266.13.007.888-.049 1.021-.075.19-.038.36-.072.575-.13a2.454 2.454 0 0 0 1.102-.745c.15-.186.293-.796.249-1.246-.044-.45-.24-.45-.06-.402 3.16.859 6.149 2.628 7.896 5.767.141.252.269.496.387.73z"
            fill="#EF6E45"></path>
        </mask>
        <g mask="url(#a)">
          <path d="M101.214 67.645l.024-.004 2.815 6.453-4.017 2.336-.84 14.09h-22.89l-.383-13.896-7.237-5.397s3.413-6.826 9.253-9.543c1.888-.879 3.62-1.293 5.23-1.452.132-.013.028-.01.044.053.01.035.041.088.078.147.037.06.037.04.219.307.18.267.45.533.855.945.336.342.8.677 1.256.931.519.29 1.028.482 1.354.62.295.123.544.188.784.245.679.16 1.207.21 2.285.266.13.007.888-.049 1.021-.075.19-.038.36-.072.575-.13a2.454 2.454 0 0 0 1.102-.745c.15-.186.293-.796.249-1.246-.044-.45-.24-.45-.06-.402 3.16.859 6.149 2.628 7.896 5.767.141.252.269.496.387.73z"
            fill="#3375BB"></path>
        </g>
        <path opacity=".201" d="M75.923 76.625l1.836 1.239 4.413-5.11" stroke="#000" stroke-width=".974"></path>
        <path d="M117.837 67.59l-.319 1.561h-5.179l2.443-12.421h5.179l-.949 4.823-1.018-.47-.317-.087-.25.014-.108.073v.302l1.107 1.583-.847.367-1.303.68-.377.26-.145.134-.12.106-.075.09-.046.082-.02.106.02.047.023.036.033.033.427.15.974-.266h.963l-1.286.266-.846.504-.288.27-.163.198v.18l.284.128 1.793-.205-.594.322-.393.242-.361.185-.278.358v.177l.098.103.251.133h1.15l.537-.063z"
          fill="#3375BB"></path>
        <path fill-rule="evenodd" clip-rule="evenodd" d="M112.338 69.151h-.857l2.443-12.421h.857l-2.443 12.421z" fill="#302B34"></path>
        <path fill-rule="evenodd" clip-rule="evenodd" d="M115.673 58.172c-.072.363-.284.628-.475.59-.19-.036-.286-.36-.214-.723.071-.363.284-.627.474-.59.19.037.286.36.215.724z" fill="#020101"></path>
      </g>
    </g>
    <defs>
      <clipPath id="clip0">
        <path fill="#fff" d="M.001 0h180v180h-180z"></path>
      </clipPath>
      <clipPath id="clip1">
        <path fill="#fff" d="M47.813 33.75h77.625V180H47.813z"></path>
      </clipPath>
    </defs>
  </symbol>
</svg>