<svg width="0" height="0" class="hidden">
  <symbol viewBox="0 0 24 24" fill="none" xmlns="http://www.w3.org/2000/svg" id="binance">
    <path fill-rule="evenodd" clip-rule="evenodd" d="M12 0l7.376 7.376-2.712 2.712L12 5.425l-4.66 4.66-2.713-2.711L12 0zM9.251 12.004l2.75-2.756L14.751 12 12 14.754l-2.749-2.75zM18.576 12l2.712-2.712L24 12l-2.712 2.712L18.576 12zM0 12l2.712-2.712L5.424 12l-2.712 2.712L0 12zm12 6.576l4.664-4.663 2.712 2.712L12 24l-7.377-7.376 2.717-2.71L12 18.577z"
      fill="#3375BB"></path>
  </symbol>
  <symbol viewBox="0 0 24 24" fill="none" xmlns="http://www.w3.org/2000/svg" id="card">
    <path d="M20 3H4c-1.11 0-1.99.949-1.99 2.131L2 17.921c0 1.182.89 2.13 2 2.13h16c1.11 0 2-.948 2-2.13V5.13C22 3.948 21.11 3 20 3zm0 14.92H4v-6.394h16v6.394zm0-10.657H4V5.13h16v2.132z" fill="#3375BB"></path>
  </symbol>
  <symbol viewBox="0 0 24 24" fill="none" xmlns="http://www.w3.org/2000/svg" id="dex">
    <g clip-path="url(#clip0)" fill="#3375BB">
      <path d="M21 10.414H0v-2h18.586l-6-6L14 1l7.707 7.707A1 1 0 0 1 21 10.414zm-18 4h21v2H5.414l6 6L10 23.828l-7.707-7.707A1 1 0 0 1 3 14.414z"></path>
    </g>
    <defs>
      <clipPath id="clip0">
        <path fill="#fff" d="M0 0h24v24H0z"></path>
      </clipPath>
    </defs>
  </symbol>
  <symbol viewBox="0 0 24 24" fill="none" xmlns="http://www.w3.org/2000/svg" id="chart">
    <path d="M13.2 4H10a.8.8 0 0 0-.8.8v14.4a.8.8 0 0 0 .8.8h3.2a.8.8 0 0 0 .8-.8V4.8a.8.8 0 0 0-.8-.8zM6 12.8H2.8a.8.8 0 0 0-.8.8v5.6a.8.8 0 0 0 .8.8H6a.8.8 0 0 0 .8-.8v-5.6a.8.8 0 0 0-.8-.8zm14.4-4h-3.2a.8.8 0 0 0-.8.8v9.6a.8.8 0 0 0 .8.8h3.2a.8.8 0 0 0 .8-.8V9.6a.8.8 0 0 0-.8-.8z"
      fill="#3375BB"></path>
  </symbol>
  <symbol viewBox="0 0 24 24" fill="none" xmlns="http://www.w3.org/2000/svg" id="lock">
    <path d="M18 10.726V6c0-3.309-2.691-6-6-6S6 2.691 6 6v4.726A7.957 7.957 0 0 0 4 16c0 4.411 3.589 8 8 8s8-3.589 8-8a7.957 7.957 0 0 0-2-5.274zm-5 7.09V20h-2v-2.184A2.996 2.996 0 0 1 9 15c0-1.654 1.346-3 3-3s3 1.346 3 3a2.995 2.995 0 0 1-2 2.816zm3-8.734a7.94 7.94 0 0 0-8 0V6c0-2.206 1.794-4 4-4s4 1.794 4 4v3.082z"
      fill="#3375BB"></path>
  </symbol>
</svg>
