<svg width="0" height="0" class="hidden">
  <symbol viewBox="0 0 32 27" fill="none" xmlns="http://www.w3.org/2000/svg" id="social_twitter">
    <path fill-rule="evenodd" clip-rule="evenodd" d="M32 3.196a12.701 12.701 0 0 1-3.77 1.073 6.79 6.79 0 0 0 2.887-3.77 12.837 12.837 0 0 1-4.171 1.652C25.75.827 24.044 0 22.154 0c-3.623 0-6.563 3.052-6.563 6.816 0 .534.057 1.053.17 1.552-5.457-.285-10.293-2.995-13.533-7.124a7.007 7.007 0 0 0-.889 3.43c0 2.364 1.16 4.45 2.92 5.674a6.387 6.387 0 0 1-2.974-.85v.083c0 3.304 2.263 6.06 5.268 6.683-.55.16-1.13.24-1.73.24a6.31 6.31 0 0 1-1.236-.12c.836 2.706 3.26 4.678 6.133 4.73-2.246 1.83-5.079 2.92-8.154 2.92-.53 0-1.053-.031-1.566-.094C2.906 25.87 6.358 27 10.064 27c12.077 0 18.68-10.385 18.68-19.392 0-.297-.006-.593-.018-.884A13.574 13.574 0 0 0 32 3.196z"
      fill="#5a749a"></path>
  </symbol>
  <symbol viewBox="0 0 39 32" fill="none" xmlns="http://www.w3.org/2000/svg" id="social_reddit">
    <path fill-rule="evenodd" clip-rule="evenodd" d="M24.912 21.06c-1.435 0-2.641-1.153-2.641-2.575 0-1.422 1.206-2.613 2.641-2.613s2.6 1.191 2.6 2.613-1.165 2.576-2.6 2.576zm.61 5c-1.337 1.323-3.399 1.966-6.303 1.966l-.02-.001-.02.001c-2.905 0-4.965-.643-6.3-1.966a1.031 1.031 0 0 1 0-1.47 1.056 1.056 0 0 1 1.483 0c.921.913 2.497 1.358 4.816 1.358h.041c2.32 0 3.897-.445 4.82-1.358a1.055 1.055 0 0 1 1.483 0 1.034 1.034 0 0 1 0 1.47zm-14.633-7.575c0-1.42 1.203-2.613 2.637-2.613 1.436 0 2.6 1.192 2.6 2.613 0 1.422-1.164 2.576-2.6 2.576-1.434 0-2.637-1.154-2.637-2.576zM31.997 2.078c.972 0 1.763.784 1.763 1.746 0 .963-.791 1.747-1.763 1.747a1.757 1.757 0 0 1-1.763-1.747c0-.962.79-1.746 1.763-1.746zM38.4 15.656c0-2.522-2.07-4.573-4.615-4.573a4.616 4.616 0 0 0-2.908 1.026c-2.814-1.752-6.385-2.808-10.213-3.032l1.997-6.255 5.487 1.28c.144 1.98 1.815 3.547 3.849 3.547 2.127 0 3.859-1.716 3.859-3.825 0-2.108-1.732-3.824-3.86-3.824a3.87 3.87 0 0 0-3.425 2.065L22.194.578a1.049 1.049 0 0 0-1.24.698L18.475 9.04c-4.124.1-8.001 1.16-11.022 3.015a4.618 4.618 0 0 0-2.838-.972C2.07 11.083 0 13.134 0 15.656c0 1.56.792 2.937 1.998 3.763-.05.362-.077.727-.077 1.097 0 3.152 1.85 6.085 5.207 8.256C10.346 30.854 14.606 32 19.122 32s8.776-1.146 11.994-3.228c3.358-2.171 5.207-5.104 5.207-8.256 0-.336-.023-.67-.065-1.002a4.562 4.562 0 0 0 2.142-3.858z"
      fill="#5a749a"></path>
  </symbol>
  <symbol viewBox="0 0 36 32" fill="none" xmlns="http://www.w3.org/2000/svg" id="social_telegram">
    <path fill-rule="evenodd" clip-rule="evenodd" d="M21.226 25.987l-3.534 3.39A1 1 0 0 1 16 28.655v-7.05a2.054 2.054 0 0 1 0-.564V21h.006c.138-.92.823-1.835 1.492-2.4 3.085-3.152 6.357-5.83 9.28-9.147.79-1.975-1.54-.31-2.31.2-4.223 3.018-8.343 6.22-12.795 8.873-2.275 1.298-4.926.189-7.2-.536-2.037-.875-5.024-1.757-3.267-3.091 3.608-2.06 7.634-3.78 11.396-5.51 6.473-2.83 12.971-5.613 19.535-8.203 1.277-.441 3.572-.872 3.797 1.09-.123 2.778-.63 5.54-.978 8.302-.882 6.074-1.902 12.126-2.897 18.18-.342 2.016-2.778 3.06-4.337 1.77-2.162-1.515-4.335-3.021-6.496-4.54z"
      fill="#5a749a"></path>
  </symbol>
  <symbol viewBox="0 0 32 23" fill="none" xmlns="http://www.w3.org/2000/svg" id="social_youtube">
    <path fill-rule="evenodd" clip-rule="evenodd" d="M12.696 15.741l-.001-9.188 8.646 4.61-8.645 4.578zM31.68 4.961s-.313-2.253-1.272-3.245C29.191.413 27.827.406 27.202.33 22.724 0 16.007 0 16.007 0h-.014S9.276 0 4.798.331c-.626.076-1.989.082-3.207 1.385C.632 2.708.32 4.96.32 4.96S0 7.608 0 10.254v2.481c0 2.647.32 5.292.32 5.292s.312 2.254 1.271 3.246c1.218 1.303 2.817 1.262 3.529 1.398C7.68 22.922 16 23 16 23s6.724-.01 11.202-.341c.625-.077 1.989-.083 3.206-1.386.959-.992 1.272-3.246 1.272-3.246s.32-2.645.32-5.292v-2.481c0-2.646-.32-5.293-.32-5.293z"
      fill="#5a749a"></path>
  </symbol>
  <symbol viewBox="0 0 28 32" fill="none" xmlns="http://www.w3.org/2000/svg" id="social_discord">
    <g clip-path="url(#clip0)">
      <path fill-rule="evenodd" clip-rule="evenodd" d="M24.16.441c1.767 0 3.206 1.422 3.206 3.183v27.714l-3.363-2.935-1.892-1.73-2.001-1.839.829 2.858H3.206C1.439 27.692 0 26.271 0 24.51V3.624C0 1.863 1.439.44 3.206.44H24.16zm-6.036 20.176c3.456-.108 4.785-2.348 4.785-2.348 0-4.975-2.252-9.007-2.252-9.007-2.252-1.668-4.394-1.622-4.394-1.622l-.22.247c2.66.804 3.895 1.962 3.895 1.962a12.859 12.859 0 0 0-4.707-1.483 13.392 13.392 0 0 0-3.159.031c-.082 0-.152.012-.23.025l-.036.006c-.547.046-1.876.247-3.55.973-.578.263-.922.448-.922.448s1.298-1.22 4.113-2.023l-.157-.186s-2.142-.046-4.394 1.622c0 0-2.252 4.032-2.252 9.007 0 0 1.314 2.24 4.77 2.348 0 0 .578-.695 1.047-1.283-1.986-.587-2.736-1.822-2.736-1.822s.156.108.438.262a.645.645 0 0 0 .133.085 9.223 9.223 0 0 0 1.212.564c.64.247 1.407.494 2.298.664a11.07 11.07 0 0 0 4.05.016c.735-.124 1.486-.34 2.268-.665a8.988 8.988 0 0 0 1.798-.91s-.782 1.266-2.83 1.837a67.332 67.332 0 0 0 1.032 1.252zm-6.831-6.934c.884 0 1.598.795 1.582 1.765 0 .97-.698 1.766-1.582 1.766-.87 0-1.583-.795-1.583-1.766 0-.97.698-1.765 1.583-1.765zm4.08 1.765c0-.97.698-1.765 1.583-1.765.884 0 1.582.795 1.582 1.765 0 .97-.698 1.766-1.582 1.766-.87 0-1.583-.795-1.583-1.766z"
        fill="#5a749a"></path>
    </g>
    <defs>
      <clipPath id="clip0">
        <path fill="#fff" d="M0 0h28v32H0z"></path>
      </clipPath>
    </defs>
  </symbol>
  <symbol viewBox="0 0 32 32" fill="none" xmlns="http://www.w3.org/2000/svg" id="social_facebook">
    <path fill-rule="evenodd" clip-rule="evenodd" d="M17.092 32H1.766C.79 32 0 31.21 0 30.234V1.766C0 .791.79 0 1.766 0h28.468C31.209 0 32 .79 32 1.766v28.468c0 .975-.79 1.766-1.766 1.766h-8.155V19.608h4.16l.623-4.83H22.08v-3.083c0-1.398.388-2.351 2.393-2.351l2.557-.001v-4.32c-.442-.058-1.96-.19-3.726-.19-3.687 0-6.212 2.25-6.212 6.384v3.561h-4.17v4.83h4.17V32z"
      fill="#5a749a"></path>
  </symbol>
  <symbol viewBox="0 0 32 31" fill="none" xmlns="http://www.w3.org/2000/svg" id="social_github">
    <path fill-rule="evenodd" clip-rule="evenodd" d="M15.999 0C7.164 0 0 7.115 0 15.894c0 7.02 4.584 12.977 10.943 15.079.8.146 1.092-.345 1.092-.766 0-.378-.014-1.377-.022-2.703-4.451.96-5.39-2.13-5.39-2.13-.727-1.836-1.776-2.325-1.776-2.325-1.453-.986.11-.966.11-.966 1.605.112 2.45 1.638 2.45 1.638 1.428 2.428 3.745 1.727 4.657 1.32.145-1.027.559-1.728 1.016-2.125-3.553-.401-7.288-1.764-7.288-7.854 0-1.735.623-3.153 1.647-4.265-.165-.402-.714-2.017.156-4.206 0 0 1.344-.427 4.4 1.63a15.457 15.457 0 0 1 4.006-.536c1.359.007 2.728.183 4.006.535 3.054-2.056 4.395-1.629 4.395-1.629.873 2.189.324 3.804.159 4.206 1.026 1.111 1.645 2.53 1.645 4.265 0 6.105-3.741 7.449-7.305 7.842.574.49 1.086 1.46 1.086 2.943 0 2.125-.02 3.838-.02 4.36 0 .425.288.92 1.1.764C27.42 28.865 32 22.912 32 15.894 32 7.114 24.836 0 15.999 0z"
      fill="#5a749a"></path>
  </symbol>
  <symbol viewBox="0 0 32 32" fill="none" xmlns="http://www.w3.org/2000/svg" id="social_instagram">
    <path fill-rule="evenodd" clip-rule="evenodd" d="M16 0c4.345 0 4.89.018 6.597.096C24.3.174 25.463.444 26.48.84a7.843 7.843 0 0 1 2.834 1.845A7.843 7.843 0 0 1 31.16 5.52c.395 1.018.666 2.181.744 3.884C31.982 11.11 32 11.655 32 16c0 4.345-.018 4.89-.096 6.597-.078 1.703-.349 2.866-.744 3.884a7.843 7.843 0 0 1-1.845 2.834 7.844 7.844 0 0 1-2.834 1.845c-1.018.396-2.181.666-3.884.744C20.89 31.982 20.345 32 16 32c-4.345 0-4.89-.018-6.597-.096-1.703-.078-2.866-.348-3.884-.744a7.844 7.844 0 0 1-2.834-1.845A7.843 7.843 0 0 1 .84 26.48C.444 25.463.174 24.3.096 22.597.018 20.89 0 20.345 0 16c0-4.345.018-4.89.096-6.597C.174 7.7.444 6.537.84 5.52a7.843 7.843 0 0 1 1.845-2.834A7.843 7.843 0 0 1 5.52.84C6.537.444 7.7.174 9.403.096 11.11.018 11.655 0 16 0zm0 2.883c-4.272 0-4.778.016-6.465.093-1.56.071-2.408.332-2.971.551-.747.29-1.28.637-1.84 1.197a4.957 4.957 0 0 0-1.197 1.84c-.22.563-.48 1.41-.55 2.97-.078 1.688-.094 2.194-.094 6.466s.016 4.778.093 6.465c.071 1.56.332 2.407.551 2.971.29.747.637 1.28 1.197 1.84s1.093.907 1.84 1.197c.563.219 1.41.48 2.97.55 1.688.078 2.193.094 6.466.094s4.779-.016 6.465-.093c1.56-.071 2.407-.332 2.971-.551a4.955 4.955 0 0 0 1.84-1.197c.56-.56.907-1.093 1.197-1.84.219-.564.48-1.41.55-2.97.078-1.688.094-2.194.094-6.466s-.016-4.778-.093-6.465c-.071-1.56-.332-2.408-.551-2.971a4.956 4.956 0 0 0-1.197-1.84 4.957 4.957 0 0 0-1.84-1.197c-.564-.219-1.41-.48-2.97-.55-1.688-.078-2.194-.094-6.466-.094zm0 4.9a8.216 8.216 0 1 1 0 16.433 8.216 8.216 0 0 1 0-16.432zm0 13.55a5.333 5.333 0 1 0 0-10.666 5.333 5.333 0 0 0 0 10.666zM26.46 7.46a1.92 1.92 0 1 1-3.84 0 1.92 1.92 0 0 1 3.84 0z"
      fill="#5a749a"></path>
  </symbol>
  <symbol viewBox="0 0 40 32" fill="none" xmlns="http://www.w3.org/2000/svg" id="social_medium">
    <path fill-rule="evenodd" clip-rule="evenodd" d="M4.67 6.528a1.58 1.58 0 0 0-.496-1.317L.496.677V0h11.419l8.825 19.81L28.5 0h10.885v.677L36.24 3.763a.951.951 0 0 0-.349.902v22.67a.951.951 0 0 0 .35.902l3.07 3.086V32H23.866v-.677l3.181-3.16c.313-.32.313-.415.313-.904V8.936l-8.844 22.989H17.32L7.024 8.935v15.408c-.086.648.124 1.3.57 1.769l4.137 5.136v.677H0v-.678l4.137-5.135c.442-.47.64-1.126.533-1.769V6.528z"
      fill="#5a749a"></path>
  </symbol>
</svg>
